<svg width="45" height="45" viewBox="0 0 45 45" fill="none" xmlns="http://www.w3.org/2000/svg">
<rect width="45" height="45" fill="#676C79"/>
<path fill-rule="evenodd" clip-rule="evenodd" d="M28.7178 23.9282L30.6462 26.2263C30.6462 26.2263 28.7539 28.2541 26.816 29.4403C24.878 30.6264 22.9268 31.4202 22.5718 30.9972C22.2169 30.5742 22.7503 29.5605 24.8876 27.1421C27.0248 24.7238 28.7178 23.9282 28.7178 23.9282Z" fill="#F2B005"/>
<path fill-rule="evenodd" clip-rule="evenodd" d="M17.3013 10.3228L19.2297 12.6209C19.2297 12.6209 17.3374 14.6487 15.3995 15.8349C13.4615 17.021 11.5103 17.8148 11.1553 17.3917C10.8004 16.9687 11.3338 15.9551 13.4711 13.5367C15.6083 11.1184 17.3013 10.3228 17.3013 10.3228Z" fill="#F2B005"/>
<path fill-rule="evenodd" clip-rule="evenodd" d="M31.4427 27.1757L33.3711 29.4739C33.3711 29.4739 31.4788 31.5017 29.5408 32.6878C27.6029 33.874 25.6516 34.6677 25.2967 34.2447C24.9417 33.8217 25.4752 32.808 27.6124 30.3897C29.7497 27.9714 31.4427 27.1757 31.4427 27.1757Z" fill="#F2B005"/>
<path fill-rule="evenodd" clip-rule="evenodd" d="M20.0264 13.5703L21.9548 15.8685C21.9548 15.8685 20.0625 17.8963 18.1246 19.0824C16.1866 20.2686 14.2354 21.0623 13.8804 20.6393C13.5255 20.2163 14.0589 19.2026 16.1962 16.7843C18.3334 14.3659 20.0264 13.5703 20.0264 13.5703Z" fill="#F2B005"/>
<path fill-rule="evenodd" clip-rule="evenodd" d="M18.9479 18.0754L20.209 19.5782C17.5549 22.1325 15.0912 24.8057 13.1337 27.1496L4.98277 25.8333L3.24421 27.2921L10.0316 31.1994C9.04318 32.6655 8.57167 33.6803 8.81209 33.9668C9.0419 34.2407 10.0874 33.9269 11.6393 33.1984L14.2061 40.356L15.9447 38.8971L16.1048 30.7855C18.796 29.1957 21.8954 27.1733 24.8034 25.0537L26.2181 26.7397L30.9099 37.754C31.1731 38.3718 31.9583 38.5598 32.4727 38.1281L35.0499 35.9656L31.4795 19.6761C37.6886 14.2204 41.5459 9.65744 39.9911 7.80455C38.4214 5.93382 33.7017 8.31851 26.6766 13.9368L11.6414 8.06858L9.07363 10.2232C8.55646 10.6572 8.60906 11.4684 9.17794 11.8319L18.9479 18.0754Z" fill="#D0D4DD"/>
<mask id="mask0_0_27106" style="mask-type:luminance" maskUnits="userSpaceOnUse" x="3" y="7" width="38" height="34">
<path fill-rule="evenodd" clip-rule="evenodd" d="M18.9479 18.0754L20.209 19.5782C17.5549 22.1325 15.0912 24.8057 13.1337 27.1496L4.98277 25.8333L3.24421 27.2921L10.0316 31.1994C9.04318 32.6655 8.57167 33.6803 8.81209 33.9668C9.0419 34.2407 10.0874 33.9269 11.6393 33.1984L14.2061 40.356L15.9447 38.8971L16.1048 30.7855C18.796 29.1957 21.8954 27.1733 24.8034 25.0537L26.2181 26.7397L30.9099 37.754C31.1731 38.3718 31.9583 38.5598 32.4727 38.1281L35.0499 35.9656L31.4795 19.6761C37.6886 14.2204 41.5459 9.65744 39.9911 7.80455C38.4214 5.93382 33.7017 8.31851 26.6766 13.9368L11.6414 8.06858L9.07363 10.2232C8.55646 10.6572 8.60906 11.4684 9.17794 11.8319L18.9479 18.0754Z" fill="white"/>
</mask>
<g mask="url(#mask0_0_27106)">
<path fill-rule="evenodd" clip-rule="evenodd" d="M35.8713 24.3698C35.8713 24.3698 38.1427 22.313 35.5446 20.8047C32.9465 19.2963 27.6425 18.3033 27.6425 18.3033C27.6425 18.3033 32.9185 14.6317 35.4137 14.0045C37.9088 13.3773 40.1879 14.2621 40.1879 14.2621C40.1879 14.2621 43.0216 18.37 43.0216 18.37C43.0216 18.37 35.8713 24.3698 35.8713 24.3698Z" fill="white"/>
<path fill-rule="evenodd" clip-rule="evenodd" d="M24.722 25.3893L21.5311 23.9201C21.5311 23.9201 17.128 28.4564 13.6787 30.5091C10.2295 32.5618 7.7404 34.3505 7.7404 34.3505C7.7404 34.3505 8.0705 34.7397 8.89141 34.5261C9.71232 34.3126 11.4901 33.3751 11.4901 33.3751L22.3482 27.3812L24.722 25.3893Z" fill="white"/>
</g>
</svg>
