<svg width="45" height="45" viewBox="0 0 45 45" fill="none" xmlns="http://www.w3.org/2000/svg">
<rect width="45" height="45" fill="#676C79"/>
<path d="M22.6334 37.5631L4 19.0774L10.9095 8.02289H34.0642L40.9725 19.0774L22.6334 37.5631Z" fill="#D0D4DD"/>
<path fill-rule="evenodd" clip-rule="evenodd" d="M15.4531 19.0774L23.0729 8.02289H10.9878L15.296 19.0774H15.4531Z" fill="#D0D4DD"/>
<path fill-rule="evenodd" clip-rule="evenodd" d="M29.7758 19.0545L33.9572 8H23L29.7758 19.0545Z" fill="#D0D4DD"/>
<path d="M29.8487 19.0774L23.0729 8.02289L15.4531 19.0774H29.8487Z" fill="white"/>
<path d="M40.9726 19.0774L34.0643 8.02289H34.0303L29.8489 19.0774H40.9726Z" fill="#D0D4DD"/>
<path d="M10.9879 8.02289H10.9095L4 19.0774H15.296L10.9879 8.02289Z" fill="#D0D4DD"/>
<path d="M4 19.0774L22.6027 37.5631L40.9725 19.0774L4 19.0774Z" fill="white"/>
<path fill-rule="evenodd" clip-rule="evenodd" d="M29.8489 19.0774H15.2961L22.6335 37.5631L29.8489 19.0774Z" fill="#D0D4DD"/>
<path fill-rule="evenodd" clip-rule="evenodd" d="M12.3057 9.50733L11.3963 12.3505L10.3652 9.50733L8 8.42009L10.3652 7.31033L11.3963 5L12.4405 7.31033L14.6366 8.24811L12.3057 9.50733Z" fill="#F2B005"/>
</svg>
