<svg width="45" height="45" viewBox="0 0 45 45" fill="none" xmlns="http://www.w3.org/2000/svg">
<rect width="45" height="45" fill="#676C79"/>
<path fill-rule="evenodd" clip-rule="evenodd" d="M18.2963 23H36L33.7037 34H16L18.2963 23Z" fill="#CE9400"/>
<path fill-rule="evenodd" clip-rule="evenodd" d="M4.29634 23H22L19.7037 34H2L4.29634 23Z" fill="#CE9400"/>
<path fill-rule="evenodd" clip-rule="evenodd" d="M11.2963 12H29L26.7037 23H9L11.2963 12Z" fill="#CE9400"/>
<path fill-rule="evenodd" clip-rule="evenodd" d="M30.3573 23H40.6427L43 34H28L30.3573 23Z" fill="#F2B005"/>
<path fill-rule="evenodd" clip-rule="evenodd" d="M14.3573 23H24.6427L27 34H12L14.3573 23Z" fill="#F2B005"/>
<path fill-rule="evenodd" clip-rule="evenodd" d="M23.3573 12H33.6427L36 23H21L23.3573 12Z" fill="#F2B005"/>
<path d="M34.3057 13.5073L33.3963 16.3505L32.3652 13.5073L30 12.4201L32.3652 11.3103L33.3963 9L34.4405 11.3103L36.6366 12.2481L34.3057 13.5073Z" fill="white"/>
<path d="M15.3057 25.5073L14.3963 28.3505L13.3652 25.5073L11 24.4201L13.3652 23.3103L14.3963 21L15.4405 23.3103L17.6366 24.2481L15.3057 25.5073Z" fill="white"/>
</svg>
