<svg width="45" height="45" viewBox="0 0 45 45" fill="none" xmlns="http://www.w3.org/2000/svg">
<rect width="45" height="45" fill="#676C79"/>
<path fill-rule="evenodd" clip-rule="evenodd" d="M21.9798 39.9062L20.1767 18.2019L15.0459 3.47504L29.9254 12.482L27.967 31.7029L21.9798 39.9062Z" fill="#20232A"/>
<path fill-rule="evenodd" clip-rule="evenodd" d="M26.321 39.9173L32.0135 29L40.0037 15.9691V30.9151L31.2502 39.9062L26.321 39.9173Z" fill="#20232A"/>
<path fill-rule="evenodd" clip-rule="evenodd" d="M21.6113 39.9062L28.0395 18.2335L40.0241 16L32.0339 29.042L26.4559 39.9062H21.6113Z" fill="#D0D4DD"/>
<path fill-rule="evenodd" clip-rule="evenodd" d="M35.3057 11.5073L34.3963 14.3505L33.3652 11.5073L31 10.4201L33.3652 9.31033L34.3963 7L35.4405 9.31033L37.6366 10.2481L35.3057 11.5073Z" fill="#F2B005"/>
<path fill-rule="evenodd" clip-rule="evenodd" d="M21.3104 18L21.9797 39.9174H17.7962L18.432 23.88L9.27479 18.88L8.11182 14.9409L15.0458 3.47504L21.3104 18Z" fill="#D0D4DD"/>
<path fill-rule="evenodd" clip-rule="evenodd" d="M16.7025 25.2225L16.5106 39.9174L13.8021 39.9062L11.9617 31.0336L16.7025 25.2225Z" fill="#20232A"/>
<path fill-rule="evenodd" clip-rule="evenodd" d="M11.9617 31.0336L16.7026 25.2224L7.6651 20L5.26196 27.9197L10.3775 39.9062H13.8022L11.9617 31.0336Z" fill="#D0D4DD"/>
<path fill-rule="evenodd" clip-rule="evenodd" d="M7.6651 20L5.26196 27.9432L11.9617 31.0336L16.7026 25.2224L7.6651 20Z" fill="white"/>
</svg>
