<svg width="45" height="45" viewBox="0 0 45 45" fill="none" xmlns="http://www.w3.org/2000/svg">
<rect width="45" height="45" fill="#676C79"/>
<ellipse cx="15" cy="19.5131" rx="15" ry="19.5131" transform="matrix(-1 0 0 1 38 2.97382)" fill="#F2B005"/>
<mask id="mask0_0_27241" style="mask-type:luminance" maskUnits="userSpaceOnUse" x="8" y="2" width="30" height="40">
<ellipse cx="15" cy="19.5131" rx="15" ry="19.5131" transform="matrix(-1 0 0 1 38 2.97382)" fill="white"/>
</mask>
<g mask="url(#mask0_0_27241)">
<path fill-rule="evenodd" clip-rule="evenodd" d="M11.6306 15.9691C11.6306 15.9691 8.95495 20.8817 9.84771 26C10.7405 31.1183 14.2166 36.3025 16.6221 37.1212C19.0275 37.9399 21.0001 36.5 21.8471 34.5C22.5001 36.5 22.8902 38.0658 24.8902 39.0918C25.1839 39.2424 25.497 39.3792 25.8302 39.4966C27.7659 40.1787 30.0092 39.7063 33.4218 38C37.4218 36 38.4855 29 38.0001 26C37.5146 23 39.8034 36.5 39.8034 36.5L34.8215 42.5C34.8215 42.5 28.4891 44.3144 24.8902 44.5C21.2912 44.6855 15.4282 43.5 15.4282 43.5L8.89015 38.5C8.89015 38.5 4.89895 31.465 6.00005 27C6.05851 26.7629 5.91835 25.4556 6.00005 25.2224C6.08595 24.9773 6.90151 21.7651 6.98915 21.5C7.54375 19.8223 11.6306 15.9691 11.6306 15.9691Z" fill="#D0D4DD"/>
<circle cx="30" cy="27" r="18" fill="#D0D4DD"/>
<ellipse cx="29.5" cy="16" rx="7.5" ry="7" fill="white"/>
<ellipse cx="27" cy="35" rx="5" ry="4" fill="white"/>
</g>
<path fill-rule="evenodd" clip-rule="evenodd" d="M26 25H32V28.51L28.3857 32.1357H32V34H26V32.0714L29.9286 28.06V26.8643H28.0714V27.7H26V25Z" fill="#20232A"/>
<rect x="17.5" y="20.5" width="7" height="9" stroke="#20232A" stroke-width="3"/>
</svg>
