<svg width="45" height="45" viewBox="0 0 45 45" fill="none" xmlns="http://www.w3.org/2000/svg">
<rect width="45" height="45" fill="#676C79"/>
<path fill-rule="evenodd" clip-rule="evenodd" d="M17.0448 20.4774C16.5919 14.4365 18.1836 8.41879 21.5641 3.39185L22.5001 2L23.436 3.39185C26.8165 8.41879 28.4082 14.4365 27.9553 20.4774L26.4165 41C26.4165 41 24.2091 41.53 22.5001 41.53C20.791 41.53 18.5836 41 18.5836 41L17.0448 20.4774Z" fill="#D0D4DD"/>
<mask id="mask0_0_27073" style="mask-type:luminance" maskUnits="userSpaceOnUse" x="16" y="2" width="13" height="40">
<path fill-rule="evenodd" clip-rule="evenodd" d="M17.0448 20.4774C16.5919 14.4365 18.1836 8.41879 21.5641 3.39185L22.5001 2L23.436 3.39185C26.8165 8.41879 28.4082 14.4365 27.9553 20.4774L26.4165 41C26.4165 41 24.2091 41.53 22.5001 41.53C20.791 41.53 18.5836 41 18.5836 41L17.0448 20.4774Z" fill="white"/>
</mask>
<g mask="url(#mask0_0_27073)">
<path fill-rule="evenodd" clip-rule="evenodd" d="M20.425 5.49C25.3889 11.318 26 21.765 26.8055 31.8746C27.9921 31.5721 30.2343 11.4432 26.8055 5.92494C23.3767 0.406636 21.1532 0.999989 21.1532 0.999989C21.1532 0.999989 19.9895 3.69236 20.425 5.49Z" fill="white"/>
<path d="M15.8904 15.4878L16.1099 14.5122C18.2934 15.0034 20.4234 15.2488 22.5001 15.2488C24.5769 15.2488 26.7068 15.0034 28.8904 14.5122L29.1099 15.4878C26.8555 15.995 24.6521 16.2488 22.5001 16.2488C20.3481 16.2488 18.1447 15.995 15.8904 15.4878Z" fill="#20232A"/>
<rect x="16" y="36" width="12" height="3" fill="#20232A"/>
<rect x="14.697" y="34" width="15" height="1" fill="#20232A"/>
<path fill-rule="evenodd" clip-rule="evenodd" d="M21 25L22 42H21V25Z" fill="#20232A"/>
<path fill-rule="evenodd" clip-rule="evenodd" d="M24 25L28.0308 32.3416L26.6006 33.5L24 25Z" fill="#20232A"/>
</g>
<path fill-rule="evenodd" clip-rule="evenodd" d="M24 25V41.0803C24 42.0499 24.6955 42.8798 25.6501 43.0494L31 44C31 44 27.9121 32.4554 24 25Z" fill="#F2B005"/>
<path fill-rule="evenodd" clip-rule="evenodd" d="M21 25V41.0803C21 42.0499 20.3045 42.8798 19.3499 43.0494L14 44C14 44 17.0879 32.4554 21 25Z" fill="#F2B005"/>
</svg>
