<svg width="45" height="45" viewBox="0 0 45 45" fill="none" xmlns="http://www.w3.org/2000/svg">
<rect width="45" height="45" fill="#676C79"/>
<path fill-rule="evenodd" clip-rule="evenodd" d="M31.6076 22.9606L40.8 32.153L33.0219 39.9312L23.8295 30.7388L25.57 24.7556L31.6076 22.9606Z" fill="#F2B005"/>
<mask id="mask0_0_27200" style="mask-type:luminance" maskUnits="userSpaceOnUse" x="23" y="22" width="18" height="18">
<path fill-rule="evenodd" clip-rule="evenodd" d="M31.6076 22.9606L40.8 32.153L33.0219 39.9312L23.8295 30.7388L25.57 24.7556L31.6076 22.9606Z" fill="white"/>
</mask>
<g mask="url(#mask0_0_27200)">
<path d="M39.0323 27.5568L26.6579 39.9312" stroke="white" stroke-linecap="square"/>
<path d="M34.7896 23.3142L22.4152 35.6886" stroke="white" stroke-linecap="square"/>
<path d="M24.8415 24.0635L38.6609 37.8828" stroke="white" stroke-linecap="square"/>
</g>
<path fill-rule="evenodd" clip-rule="evenodd" d="M15.344 23.6677L21.708 30.0317L16.0511 35.6885C16.0511 35.6885 14.0157 34.2015 12.5949 32.7807C11.1742 31.36 9.68714 29.3246 9.68714 29.3246L15.344 23.6677Z" fill="#D0D4DD"/>
<mask id="mask1_0_27200" style="mask-type:luminance" maskUnits="userSpaceOnUse" x="9" y="23" width="13" height="13">
<path fill-rule="evenodd" clip-rule="evenodd" d="M15.344 23.6677L21.708 30.0317L16.0511 35.6885C16.0511 35.6885 14.0157 34.2015 12.5949 32.7807C11.1742 31.36 9.68714 29.3246 9.68714 29.3246L15.344 23.6677Z" fill="white"/>
</mask>
<g mask="url(#mask1_0_27200)">
<path d="M13.1925 25.4148L14.0114 24.8409C15.0367 26.3038 16.0153 27.5005 16.9453 28.4305C17.8751 29.3604 19.0651 30.3323 20.5148 31.3445L19.9423 32.1644C18.4474 31.1206 17.2129 30.1123 16.2382 29.1376C15.2637 28.1631 14.2491 26.9223 13.1925 25.4148Z" fill="#20232A"/>
</g>
<path fill-rule="evenodd" clip-rule="evenodd" d="M15.3442 23.6678C15.3442 23.6678 16.8947 25.8847 18.193 27.183C19.4912 28.4812 21.7082 30.0317 21.7082 30.0317L25.2437 25.082L20.294 20.1322L15.3442 23.6678Z" fill="white"/>
<path fill-rule="evenodd" clip-rule="evenodd" d="M28.0721 10.9398C28.0721 10.9398 30.323 12.5243 31.5873 13.7885C32.8515 15.0528 34.436 17.3038 34.436 17.3038L25.2436 25.0819L20.2939 20.1322L28.0721 10.9398Z" fill="#D0D4DD"/>
<mask id="mask2_0_27200" style="mask-type:luminance" maskUnits="userSpaceOnUse" x="20" y="10" width="15" height="16">
<path fill-rule="evenodd" clip-rule="evenodd" d="M28.0721 10.9398C28.0721 10.9398 30.323 12.5243 31.5873 13.7885C32.8515 15.0528 34.436 17.3038 34.436 17.3038L25.2436 25.0819L20.2939 20.1322L28.0721 10.9398Z" fill="white"/>
</mask>
<g mask="url(#mask2_0_27200)">
<rect x="20.2939" y="18.718" width="9" height="1" transform="rotate(45 20.2939 18.718)" fill="#20232A"/>
</g>
<path fill-rule="evenodd" clip-rule="evenodd" d="M22.4153 13.7683L13.2229 4.57588L5.44474 12.3541L14.6371 21.5464L20.6203 19.8059L22.4153 13.7683Z" fill="#F2B005"/>
<mask id="mask3_0_27200" style="mask-type:luminance" maskUnits="userSpaceOnUse" x="5" y="4" width="18" height="18">
<path fill-rule="evenodd" clip-rule="evenodd" d="M22.4153 13.7683L13.2229 4.57588L5.44474 12.3541L14.6371 21.5464L20.6203 19.8059L22.4153 13.7683Z" fill="white"/>
</mask>
<g mask="url(#mask3_0_27200)">
<path d="M17.8191 6.34365L5.44469 18.718" stroke="white" stroke-linecap="square"/>
<path d="M22.0617 10.5863L9.68736 22.9606" stroke="white" stroke-linecap="square"/>
<path d="M21.3125 20.5344L7.49307 6.71501" stroke="white" stroke-linecap="square"/>
</g>
</svg>
