<svg width="45" height="45" viewBox="0 0 45 45" fill="none" xmlns="http://www.w3.org/2000/svg">
<rect width="45" height="45" fill="#676C79"/>
<path fill-rule="evenodd" clip-rule="evenodd" d="M3 20.5C3 19.6716 3.67157 19 4.5 19H6.45484L7.34563 16.8446H10V13.5132H14.8138C14.8138 13.5132 16.7616 10.5969 19.9511 11.9244C21.3618 12.5116 26.7236 16.161 26.7236 16.161V17.6148L37.6682 18.8497C38.4267 18.9353 39 19.5769 39 20.3403V20.5C39 21.3284 38.3284 22 37.5 22H4.5C3.67157 22 3 21.3284 3 20.5V20.5Z" fill="white"/>
<path fill-rule="evenodd" clip-rule="evenodd" d="M22.7859 13.6948H32.589L32.818 14.1441H43V16H32.818L32.589 16.4475H24.3514H21.5L22.7859 13.6948Z" fill="white"/>
<path fill-rule="evenodd" clip-rule="evenodd" d="M6.01469 23C3.86522 23 2.41319 25.1941 3.25335 27.1726L4.95195 31.1726C5.42244 32.2805 6.50959 33 7.71329 33H35.1468C36.5635 33 37.7871 32.0089 38.0814 30.6231L38.9307 26.6231C39.3269 24.7571 37.9037 23 35.9961 23H6.01469ZM12.9999 31C14.6568 31 15.9999 29.6569 15.9999 28C15.9999 26.3431 14.6568 25 12.9999 25C11.343 25 9.9999 26.3431 9.9999 28C9.9999 29.6569 11.343 31 12.9999 31ZM23.9999 28C23.9999 29.6569 22.6568 31 20.9999 31C19.343 31 17.9999 29.6569 17.9999 28C17.9999 26.3431 19.343 25 20.9999 25C22.6568 25 23.9999 26.3431 23.9999 28ZM28.9999 31C30.6568 31 31.9999 29.6569 31.9999 28C31.9999 26.3431 30.6568 25 28.9999 25C27.343 25 25.9999 26.3431 25.9999 28C25.9999 29.6569 27.343 31 28.9999 31ZM36.9999 26.5C36.9999 27.3284 36.3283 28 35.4999 28C34.6715 28 33.9999 27.3284 33.9999 26.5C33.9999 25.6716 34.6715 25 35.4999 25C36.3283 25 36.9999 25.6716 36.9999 26.5ZM6.4999 28C7.32832 28 7.9999 27.3284 7.9999 26.5C7.9999 25.6716 7.32832 25 6.4999 25C5.67147 25 4.9999 25.6716 4.9999 26.5C4.9999 27.3284 5.67147 28 6.4999 28Z" fill="#D0D4DD"/>
<circle cx="13" cy="28" r="2" fill="#F2B005"/>
<circle cx="21" cy="28" r="2" fill="#F2B005"/>
<path fill-rule="evenodd" clip-rule="evenodd" d="M26.763 16.4474L9.99994 16.4474V16.7545L7.34558 16.8446L6.28296 19.0326L9.99994 18.4216H33.7275L26.763 17.5137V16.4474Z" fill="#D0D4DD"/>
<circle cx="29" cy="28" r="2" fill="#F2B005"/>
<circle cx="6.5" cy="26.5" r="1.5" fill="#20232A"/>
<circle cx="35.5" cy="26.5" r="1.5" fill="#20232A"/>
<path fill-rule="evenodd" clip-rule="evenodd" d="M43 14.1442V16H40.2656V14.1442H43Z" fill="#20232A"/>
<path fill-rule="evenodd" clip-rule="evenodd" d="M32.8179 14.1442V16H33.7275V14.1442H32.8179Z" fill="#20232A"/>
</svg>
