<svg width="45" height="45" viewBox="0 0 45 45" fill="none" xmlns="http://www.w3.org/2000/svg">
<rect width="45" height="45" fill="#676C79"/>
<path fill-rule="evenodd" clip-rule="evenodd" d="M30.7942 18C26.2378 10.1082 19.0546 5.72531 14.75 8.21059C10.4453 10.6959 10.6494 19.1082 15.2057 27C19.7621 34.8918 26.9453 39.2747 31.25 36.7894C35.5546 34.3041 35.3505 25.8918 30.7942 18ZM16.9378 26C12.8603 18.9376 12.685 11.7122 15.75 9.94264C18.8149 8.17311 24.9847 11.9376 29.0621 19C33.1396 26.0624 33.3149 33.2878 30.25 35.0574C27.185 36.8269 21.0153 33.0624 16.9378 26Z" fill="white"/>
<path fill-rule="evenodd" clip-rule="evenodd" d="M12.0126 26.2778C12.5288 23.6432 13.5954 20.7891 15.2057 18C15.3173 17.8067 15.4304 17.6156 15.5451 17.4267C11.291 18.5594 8.49997 20.5651 8.49997 22.5C8.49997 23.8275 9.81383 25.1884 12.0126 26.2778ZM11.7169 28.3372C8.50602 26.8776 6.49997 24.8024 6.49997 22.5C6.49997 19.076 10.9365 16.1544 17.1744 15.0129C21.6432 9.05294 27.5246 6.05971 31.25 8.21055C33.6268 9.58279 34.629 12.762 34.283 16.6627C37.4939 18.1223 39.5 20.1976 39.5 22.5C39.5 25.924 35.0635 28.8455 28.8255 29.9871C24.3567 35.947 18.4754 38.9402 14.75 36.7894C12.3732 35.4172 11.371 32.238 11.7169 28.3372ZM25.9346 30.3738C22.2763 34.517 18.1003 36.4143 15.75 35.0573C14.232 34.181 13.5089 31.9664 13.6609 29.0961C16.3164 29.9816 19.5333 30.5 23 30.5C24.0015 30.5 24.9823 30.4567 25.9346 30.3738ZM27.6899 28.148C26.2253 28.3737 24.6494 28.5 23 28.5C19.5202 28.5 16.3675 27.9379 13.8974 27.0663C14.3342 24.5802 15.3342 21.7775 16.9378 19C17.3734 18.2454 17.833 17.5285 18.31 16.852C19.7746 16.6263 21.3506 16.5 23 16.5C26.4797 16.5 29.6324 17.0621 32.1025 17.9336C31.6658 20.4198 30.6657 23.2225 29.0622 26C28.6265 26.7545 28.167 27.4714 27.6899 28.148ZM30.4549 27.5733C34.7089 26.4406 37.5 24.4348 37.5 22.5C37.5 21.1725 36.1861 19.8116 33.9873 18.7222C33.4712 21.3567 32.4045 24.2108 30.7942 27C30.6826 27.1932 30.5695 27.3843 30.4549 27.5733ZM32.3391 15.9039C32.4911 13.0336 31.7679 10.819 30.25 9.9426C27.8997 8.58566 23.7236 10.483 20.0653 14.6261C21.0177 14.5432 21.9984 14.5 23 14.5C26.4666 14.5 29.6835 15.0183 32.3391 15.9039Z" fill="#D0D4DD"/>
<circle cx="38" cy="23" r="3" fill="#F2B005"/>
<circle cx="14" cy="35" r="3" fill="#F2B005"/>
<circle cx="15" cy="9" r="3" fill="#F2B005"/>
</svg>
