<svg width="10" height="10" viewBox="0 0 10 10" fill="none" xmlns="http://www.w3.org/2000/svg">
<path fill-rule="evenodd" clip-rule="evenodd" d="M0 4.99992C0 2.23864 2.23857 0 4.99992 0C7.76126 0 10 2.23864 10 4.99992C10 7.7612 7.76126 10 4.99992 10C2.23857 10 0 7.7612 0 4.99992ZM7.47 5.57065C7.47 5.12895 7.07933 4.8413 6.65851 4.8413H5.52298V3.22935C5.52298 2.78765 5.13232 2.5 4.71149 2.5C4.29067 2.5 3.9 2.78765 3.9 3.22935V5.57065C3.9 6.01235 4.29067 6.3 4.71149 6.3L4.7305 6.29936L4.7492 6.3H6.65863C7.07946 6.3 7.47 6.01229 7.47 5.57065Z" fill="#676C79"/>
</svg>
