<svg width="35" height="35" viewBox="0 0 35 35" fill="none" xmlns="http://www.w3.org/2000/svg">
<path fill-rule="evenodd" clip-rule="evenodd" d="M29.7788 6.959V23.7626C29.7788 24.3787 29.2632 24.8812 28.6294 24.8828C25.9571 24.889 21.4799 25.4327 18.3912 28.5876V11.0023C18.3912 10.7934 18.4458 10.5972 18.5489 10.4348C21.0841 6.45004 25.9556 5.8446 28.6338 5.83838H28.6366C28.9397 5.83838 29.2254 5.95384 29.4409 6.16366C29.6587 6.37581 29.7788 6.65828 29.7788 6.959ZM6.36333 5.83845H6.36603C9.04439 5.84457 13.9159 6.45001 16.4509 10.4348C16.5541 10.5972 16.6087 10.7934 16.6087 11.0023V28.5876C13.5201 25.4328 9.04288 24.8891 6.37057 24.8829C5.73668 24.8813 5.22108 24.3788 5.22108 23.7626V6.95907C5.22108 6.65836 5.34109 6.37588 5.55898 6.16373C5.77449 5.95391 6.05989 5.83845 6.36333 5.83845ZM32.3936 9.71363H31.5612V23.7626C31.5612 25.3359 30.2479 26.6188 28.6336 26.6227C26.3669 26.628 22.6295 27.0606 19.9825 29.5058C24.5604 28.4118 29.3863 29.123 32.1366 29.7348C32.48 29.8111 32.8349 29.7322 33.11 29.5182C33.3842 29.3047 33.5415 28.9855 33.5415 28.6429V10.834C33.5416 10.2163 33.0265 9.71363 32.3936 9.71363ZM3.43856 9.71363V23.7626C3.43856 25.3359 4.75192 26.6188 6.36614 26.6226C8.63282 26.6278 12.3703 27.0604 15.0171 29.5055C10.4394 28.4115 5.61342 29.1226 2.86311 29.7344C2.51916 29.811 2.16463 29.7318 1.8897 29.5179C1.61554 29.3043 1.45825 28.9853 1.45825 28.6426V10.834C1.45825 10.2163 1.97331 9.71363 2.60612 9.71363H3.43856Z" fill="#F2B005"/>
</svg>
